<mxfile host="app.diagrams.net" agent="Mozilla/5.0 (Windows NT 10.0; Win64; x64) AppleWebKit/537.36 (KHTML, like Gecko) Chrome/131.0.0.0 Safari/537.36" version="25.0.3">
  <diagram name="‫עמוד-1‬" id="UeIUSPOmmAadmIoRJmhC">
    <mxGraphModel grid="1" page="1" gridSize="10" guides="1" tooltips="1" connect="1" arrows="1" fold="1" pageScale="1" pageWidth="1169" pageHeight="827" math="0" shadow="0">
      <root>
        <mxCell id="0" />
        <mxCell id="1" parent="0" />
        <mxCell id="3" value="App" style="whiteSpace=wrap;strokeWidth=2;" vertex="1" parent="1">
          <mxGeometry x="41" y="591" width="468" height="99" as="geometry" />
        </mxCell>
        <mxCell id="4" value="" style="whiteSpace=wrap;strokeWidth=2;" vertex="1" parent="1">
          <mxGeometry x="-30" y="370" width="580" height="510" as="geometry" />
        </mxCell>
        <mxCell id="6" value="Discover Jobs" style="rounded=1;arcSize=40;strokeWidth=2" vertex="1" parent="1">
          <mxGeometry x="61" y="752" width="127" height="49" as="geometry" />
        </mxCell>
        <mxCell id="7" value="Job Applications" style="rhombus;strokeWidth=2;whiteSpace=wrap;" vertex="1" parent="1">
          <mxGeometry x="215" y="488" width="166" height="166" as="geometry" />
        </mxCell>
        <mxCell id="8" value="Manage Applications" style="rounded=1;arcSize=40;strokeWidth=2" vertex="1" parent="1">
          <mxGeometry x="301" y="752" width="177" height="49" as="geometry" />
        </mxCell>
        <mxCell id="9" value="Find Jobs" style="rounded=1;arcSize=40;strokeWidth=2" vertex="1" parent="1">
          <mxGeometry x="76" y="924" width="98" height="49" as="geometry" />
        </mxCell>
        <mxCell id="10" value="Modify Applications" style="rounded=1;arcSize=40;strokeWidth=2" vertex="1" parent="1">
          <mxGeometry x="304" y="924" width="170" height="49" as="geometry" />
        </mxCell>
        <mxCell id="12" value="Search for Jobs" style="curved=1;startArrow=none;endArrow=block;entryX=0.42;entryY=0;" edge="1" parent="1" source="SNUIOxPrxX7M3Lf1DJpX-18" target="6">
          <mxGeometry relative="1" as="geometry">
            <Array as="points">
              <mxPoint x="97" y="427" />
              <mxPoint x="97" y="716" />
            </Array>
            <mxPoint x="150" y="400" as="sourcePoint" />
          </mxGeometry>
        </mxCell>
        <mxCell id="13" value="Apply for Jobs" style="curved=1;startArrow=none;endArrow=block;entryX=0.5;entryY=0;" edge="1" parent="1" source="SNUIOxPrxX7M3Lf1DJpX-18" target="7">
          <mxGeometry x="0.349" y="11" relative="1" as="geometry">
            <Array as="points">
              <mxPoint x="298" y="427" />
            </Array>
            <mxPoint x="237.73000000000002" y="390" as="sourcePoint" />
            <mxPoint as="offset" />
          </mxGeometry>
        </mxCell>
        <mxCell id="14" value="Track Application Status" style="curved=1;startArrow=none;endArrow=block;exitX=0.5;exitY=1;entryX=0.29;entryY=0;" edge="1" parent="1" source="7" target="8">
          <mxGeometry x="-0.7484" relative="1" as="geometry">
            <Array as="points">
              <mxPoint x="298" y="716" />
            </Array>
            <mxPoint as="offset" />
          </mxGeometry>
        </mxCell>
        <mxCell id="15" value="Display Job Listings" style="curved=1;startArrow=none;endArrow=block;exitX=0.5;exitY=1;entryX=0.5;entryY=0;" edge="1" parent="1" source="6" target="9">
          <mxGeometry relative="1" as="geometry">
            <Array as="points" />
          </mxGeometry>
        </mxCell>
        <mxCell id="16" value="Update Information" style="curved=1;startArrow=none;endArrow=block;exitX=0.5;exitY=1;entryX=0.5;entryY=0;" edge="1" parent="1" source="8" target="10">
          <mxGeometry relative="1" as="geometry">
            <Array as="points" />
          </mxGeometry>
        </mxCell>
        <mxCell id="17" value="Post Jobs" style="curved=1;startArrow=none;endArrow=block;exitX=0;exitY=1;entryX=0.59;entryY=0;exitDx=0;exitDy=0;exitPerimeter=0;" edge="1" parent="1" source="SNUIOxPrxX7M3Lf1DJpX-19" target="6">
          <mxGeometry relative="1" as="geometry">
            <Array as="points">
              <mxPoint x="675" y="679" />
              <mxPoint x="154" y="716" />
            </Array>
            <mxPoint x="690.1774193548385" y="618.1774193548388" as="sourcePoint" />
          </mxGeometry>
        </mxCell>
        <mxCell id="18" value="Review Applications" style="curved=1;startArrow=none;endArrow=block;entryX=0.7;entryY=0;exitX=1;exitY=1;exitDx=0;exitDy=0;exitPerimeter=0;" edge="1" parent="1" source="SNUIOxPrxX7M3Lf1DJpX-19" target="8">
          <mxGeometry relative="1" as="geometry">
            <Array as="points">
              <mxPoint x="738" y="679" />
              <mxPoint x="480" y="716" />
            </Array>
            <mxPoint x="750" y="610" as="sourcePoint" />
          </mxGeometry>
        </mxCell>
        <mxCell id="SNUIOxPrxX7M3Lf1DJpX-18" value="candidate" style="shape=umlActor;verticalLabelPosition=bottom;verticalAlign=top;html=1;outlineConnect=0;" vertex="1" parent="1">
          <mxGeometry x="185" y="220" width="30" height="60" as="geometry" />
        </mxCell>
        <mxCell id="SNUIOxPrxX7M3Lf1DJpX-19" value="employer" style="shape=umlActor;verticalLabelPosition=bottom;verticalAlign=top;html=1;outlineConnect=0;" vertex="1" parent="1">
          <mxGeometry x="720" y="500" width="30" height="60" as="geometry" />
        </mxCell>
        <mxCell id="SNUIOxPrxX7M3Lf1DJpX-23" value="use case of a candidate that want to search for jobs and apply&amp;nbsp;" style="rounded=0;whiteSpace=wrap;html=1;" vertex="1" parent="1">
          <mxGeometry x="140" y="70" width="520" height="60" as="geometry" />
        </mxCell>
        <mxCell id="Q6v5PhTW-_wyhAyD1lKd-33" value="use case of employer that want to upload or modify his existing job offers" style="rounded=0;whiteSpace=wrap;html=1;" vertex="1" parent="1">
          <mxGeometry x="63" y="1211" width="549" height="60" as="geometry" />
        </mxCell>
        <mxCell id="Q6v5PhTW-_wyhAyD1lKd-44" value="App" style="whiteSpace=wrap;strokeWidth=2;" vertex="1" parent="1">
          <mxGeometry x="43" y="1791" width="468" height="99" as="geometry" />
        </mxCell>
        <mxCell id="Q6v5PhTW-_wyhAyD1lKd-45" value="" style="whiteSpace=wrap;strokeWidth=2;" vertex="1" parent="1">
          <mxGeometry x="-28" y="1570" width="580" height="510" as="geometry" />
        </mxCell>
        <mxCell id="Q6v5PhTW-_wyhAyD1lKd-46" value="Discover Jobs" style="rounded=1;arcSize=40;strokeWidth=2" vertex="1" parent="1">
          <mxGeometry x="63" y="1952" width="127" height="49" as="geometry" />
        </mxCell>
        <mxCell id="Q6v5PhTW-_wyhAyD1lKd-47" value="manage aplications" style="rhombus;strokeWidth=2;whiteSpace=wrap;" vertex="1" parent="1">
          <mxGeometry x="217" y="1688" width="166" height="166" as="geometry" />
        </mxCell>
        <mxCell id="Q6v5PhTW-_wyhAyD1lKd-48" value="modify aplication" style="rounded=1;arcSize=40;strokeWidth=2" vertex="1" parent="1">
          <mxGeometry x="270" y="1952" width="177" height="49" as="geometry" />
        </mxCell>
        <mxCell id="Q6v5PhTW-_wyhAyD1lKd-49" value="Find Jobs" style="rounded=1;arcSize=40;strokeWidth=2" vertex="1" parent="1">
          <mxGeometry x="78" y="2124" width="98" height="49" as="geometry" />
        </mxCell>
        <mxCell id="Q6v5PhTW-_wyhAyD1lKd-51" value="post jobs" style="curved=1;startArrow=none;endArrow=block;entryX=0.42;entryY=0;" edge="1" parent="1" source="Q6v5PhTW-_wyhAyD1lKd-58" target="Q6v5PhTW-_wyhAyD1lKd-46">
          <mxGeometry x="0.0002" relative="1" as="geometry">
            <Array as="points">
              <mxPoint x="99" y="1627" />
              <mxPoint x="99" y="1916" />
            </Array>
            <mxPoint x="152" y="1600" as="sourcePoint" />
            <mxPoint as="offset" />
          </mxGeometry>
        </mxCell>
        <mxCell id="Q6v5PhTW-_wyhAyD1lKd-52" value="review aplications" style="curved=1;startArrow=none;endArrow=block;entryX=0.5;entryY=0;" edge="1" parent="1" source="Q6v5PhTW-_wyhAyD1lKd-58" target="Q6v5PhTW-_wyhAyD1lKd-47">
          <mxGeometry x="0.349" y="11" relative="1" as="geometry">
            <Array as="points">
              <mxPoint x="300" y="1627" />
            </Array>
            <mxPoint x="239.73000000000002" y="1590" as="sourcePoint" />
            <mxPoint as="offset" />
          </mxGeometry>
        </mxCell>
        <mxCell id="Q6v5PhTW-_wyhAyD1lKd-54" value="Display Job Listings" style="curved=1;startArrow=none;endArrow=block;exitX=0.5;exitY=1;entryX=0.5;entryY=0;" edge="1" parent="1" source="Q6v5PhTW-_wyhAyD1lKd-46" target="Q6v5PhTW-_wyhAyD1lKd-49">
          <mxGeometry relative="1" as="geometry">
            <Array as="points" />
          </mxGeometry>
        </mxCell>
        <mxCell id="Q6v5PhTW-_wyhAyD1lKd-58" value="employer" style="shape=umlActor;verticalLabelPosition=bottom;verticalAlign=top;html=1;outlineConnect=0;" vertex="1" parent="1">
          <mxGeometry x="187" y="1420" width="30" height="60" as="geometry" />
        </mxCell>
        <mxCell id="Q6v5PhTW-_wyhAyD1lKd-65" style="edgeStyle=orthogonalEdgeStyle;rounded=0;orthogonalLoop=1;jettySize=auto;html=1;exitX=0;exitY=1;exitDx=0;exitDy=0;exitPerimeter=0;entryX=1;entryY=0.5;entryDx=0;entryDy=0;curved=1;" edge="1" parent="1" source="Q6v5PhTW-_wyhAyD1lKd-59" target="Q6v5PhTW-_wyhAyD1lKd-47">
          <mxGeometry relative="1" as="geometry">
            <Array as="points">
              <mxPoint x="722" y="1771" />
            </Array>
          </mxGeometry>
        </mxCell>
        <mxCell id="Q6v5PhTW-_wyhAyD1lKd-66" value="&#xa;&lt;span style=&quot;color: rgb(0, 0, 0); font-family: Helvetica; font-size: 11px; font-style: normal; font-variant-ligatures: normal; font-variant-caps: normal; font-weight: 400; letter-spacing: normal; orphans: 2; text-align: center; text-indent: 0px; text-transform: none; widows: 2; word-spacing: 0px; -webkit-text-stroke-width: 0px; white-space: nowrap; background-color: rgb(255, 255, 255); text-decoration-thickness: initial; text-decoration-style: initial; text-decoration-color: initial; display: inline !important; float: none;&quot;&gt;Track Application Status&lt;/span&gt;&#xa;&#xa;" style="edgeLabel;html=1;align=center;verticalAlign=middle;resizable=0;points=[];" connectable="0" vertex="1" parent="Q6v5PhTW-_wyhAyD1lKd-65">
          <mxGeometry x="0.1657" y="-4" relative="1" as="geometry">
            <mxPoint x="-53" y="13" as="offset" />
          </mxGeometry>
        </mxCell>
        <mxCell id="Q6v5PhTW-_wyhAyD1lKd-59" value="candidate" style="shape=umlActor;verticalLabelPosition=bottom;verticalAlign=top;html=1;outlineConnect=0;" vertex="1" parent="1">
          <mxGeometry x="722" y="1700" width="30" height="60" as="geometry" />
        </mxCell>
        <mxCell id="Q6v5PhTW-_wyhAyD1lKd-72" value="" style="endArrow=classic;html=1;rounded=0;exitX=0.801;exitY=0.711;exitDx=0;exitDy=0;exitPerimeter=0;entryX=0.5;entryY=0;entryDx=0;entryDy=0;" edge="1" parent="1" source="Q6v5PhTW-_wyhAyD1lKd-47" target="Q6v5PhTW-_wyhAyD1lKd-48">
          <mxGeometry width="50" height="50" relative="1" as="geometry">
            <mxPoint x="430" y="1860" as="sourcePoint" />
            <mxPoint x="480" y="1810" as="targetPoint" />
          </mxGeometry>
        </mxCell>
        <mxCell id="Q6v5PhTW-_wyhAyD1lKd-73" value="Update Information" style="edgeLabel;html=1;align=center;verticalAlign=middle;resizable=0;points=[];" connectable="0" vertex="1" parent="Q6v5PhTW-_wyhAyD1lKd-72">
          <mxGeometry x="-0.3971" relative="1" as="geometry">
            <mxPoint x="6" y="30" as="offset" />
          </mxGeometry>
        </mxCell>
      </root>
    </mxGraphModel>
  </diagram>
</mxfile>
